<?xml version="1.0" encoding="UTF-8" standalone="no"?>
<!-- Created with Inkscape (http://www.inkscape.org/) -->

<svg
   width="210mm"
   height="297mm"
   viewBox="0 0 210 297"
   version="1.1"
   id="svg1"
   inkscape:version="1.3 (0e150ed6c4, 2023-07-21)"
   sodipodi:docname="Zadanie3.svg"
   xmlns:inkscape="http://www.inkscape.org/namespaces/inkscape"
   xmlns:sodipodi="http://sodipodi.sourceforge.net/DTD/sodipodi-0.dtd"
   xmlns:xlink="http://www.w3.org/1999/xlink"
   xmlns="http://www.w3.org/2000/svg"
   xmlns:svg="http://www.w3.org/2000/svg">
  <sodipodi:namedview
     id="namedview1"
     pagecolor="#ffffff"
     bordercolor="#666666"
     borderopacity="1.0"
     inkscape:showpageshadow="2"
     inkscape:pageopacity="0.0"
     inkscape:pagecheckerboard="0"
     inkscape:deskcolor="#d1d1d1"
     inkscape:document-units="mm"
     inkscape:zoom="0.45344416"
     inkscape:cx="396.96177"
     inkscape:cy="208.40493"
     inkscape:window-width="1366"
     inkscape:window-height="705"
     inkscape:window-x="-8"
     inkscape:window-y="-8"
     inkscape:window-maximized="1"
     inkscape:current-layer="layer1" />
  <defs
     id="defs1">
    <linearGradient
       id="swatch1"
       inkscape:swatch="solid">
      <stop
         style="stop-color:#ff0000;stop-opacity:1;"
         offset="0"
         id="stop1" />
    </linearGradient>
    <linearGradient
       inkscape:collect="always"
       xlink:href="#swatch1"
       id="linearGradient1"
       x1="36.627925"
       y1="108.14567"
       x2="192.11886"
       y2="108.14567"
       gradientUnits="userSpaceOnUse" />
  </defs>
  <g
     inkscape:label="Warstwa 1"
     inkscape:groupmode="layer"
     id="layer1">
    <path
       style="fill:#ffff00;fill-opacity:1;fill-rule:evenodd;stroke:url(#linearGradient1);stroke-width:0.264583px;stroke-linecap:butt;stroke-linejoin:miter"
       d="M 53.098232,91.025541 C 70.67701,97.886548 46.614481,31.930817 67.102159,32.675835 78.188603,31.88673 66.518661,98.038646 81.106087,89.275049 L 78.068283,49.045072 c -0.248013,-9.059848 2.645556,-28.050773 8.576876,-29.386456 5.8079,3.002941 4.398548,21.32033 5.772917,27.278959 l 1.809906,25.321193 3.435741,14.350707 1.930206,-22.184156 c 1.114441,-12.887624 -1.674782,-28.511922 9.103611,-31.735593 8.24198,40.131215 2.52132,52.875741 10.89935,56.266112 1.85909,0.752323 0.49709,-38.923679 5.28365,-43.407989 7.79145,-7.299461 2.59099,33.017445 13.62603,42.620421 3.69033,3.211417 -1.0611,-3.414245 -2.79147,2.502798 -0.87444,2.990188 49.71692,-25.546268 56.25543,-16.566943 -4.96445,13.698504 -30.83207,37.692235 -34.67671,48.748975 -21.50302,61.84021 -7.85339,72.37565 -46.42938,73.7854 C 87.082523,179.46659 42.424398,127.24161 36.760315,90.442042 L 35.330137,52.106061 c 13.659897,-13.895815 6.448765,-3.698156 5.928674,0.06487 l -2.492994,-0.428828 8.388115,-1.243575 z"
       id="path1"
       sodipodi:nodetypes="ccccccccccsssscsccccccc" />
  </g>
</svg>
